<?xml version="1.0" encoding="UTF-8"?>
<!-- Creator: CorelDRAW -->
<svg xmlns="http://www.w3.org/2000/svg" xml:space="preserve" width="11.6681in" height="2.41091in" version="1.1" style="shape-rendering:geometricPrecision; text-rendering:geometricPrecision; image-rendering:optimizeQuality; fill-rule:evenodd; clip-rule:evenodd"
viewBox="0 0 11212.21 2316.71"
 xmlns:xlink="http://www.w3.org/1999/xlink"
 xmlns:xodm="http://www.corel.com/coreldraw/odm/2003">
 <defs>
  <style type="text/css">
   <![CDATA[
    .fil0 {fill:none}
    .fil7 {fill:#2B2A29}
    .fil1 {fill:#0095B7}
    .fil2 {fill:#306A9B}
    .fil3 {fill:#DFAE75}
    .fil4 {fill:#E3605A}
    .fil5 {fill:#ffffff;fill-rule:nonzero}
    .fil6 {fill:#ffffff;fill-rule:nonzero}
   ]]>
  </style>
 </defs>
 <g id="Layer_x0020_1">
  <metadata id="CorelCorpID_0Corel-Layer"/>
  <g id="_1872980971712">
   <rect class="fil0" transform="matrix(0.0863593 0.322297 -0.322297 0.0863593 1827.14 -0.000824158)" width="5669.11" height="5669.11"/>
   <rect class="fil1" transform="matrix(0.0287864 0.107432 -0.214865 0.0575728 1544.48 1381.28)" width="5669.11" height="5669.11"/>
   <rect class="fil2" transform="matrix(0.145261 0.542122 -0.321975 0.086273 609.045 326.385)" width="2246.9" height="1891.59"/>
   <rect class="fil3" transform="matrix(0.145261 0.542122 -0.321975 0.086273 1990.33 609.044)" width="2246.9" height="1891.59"/>
   <rect class="fil4" transform="matrix(0.0287864 0.107432 -0.214865 0.0575728 1827.14 -0.000824158)" width="5669.11" height="5669.11"/>
  </g>
  <path class="fil5" d="M2801.03 436.19l471.87 0 0 76.63 -471.87 0 0 -76.63zm-83.08 258.12l671.91 0 0 77.43 -671.91 0 0 -77.43zm287.15 54.04l95.18 0 0 161.32 -95.18 0 0 -161.32zm208.91 -312.16l94.38 0 0 58.08c0,31.19 -0.94,66.01 -2.83,104.45 -1.88,38.45 -8.74,82.41 -20.57,131.88l-94.38 -9.68c11.83,-48.4 18.69,-90.61 20.57,-126.64 1.88,-36.03 2.82,-69.37 2.82,-100.02l0 -58.08zm-428.31 448.48l525.11 0 0 261.34 -95.99 0 0 -185.52 -429.12 0 0 -75.82zm1191.37 -480.74l96.79 0 0 412.18 -96.79 0 0 -412.18zm-479.13 321.03l62.92 0c47.32,0 90.34,-0.4 129.06,-1.21 38.72,-0.81 75.69,-2.82 110.91,-6.05 35.22,-3.23 71.12,-8.07 107.68,-14.52l10.48 77.44c-37.64,5.91 -74.61,10.48 -110.91,13.71 -36.3,3.23 -74.34,5.38 -114.14,6.45 -39.79,1.07 -84.16,1.61 -133.09,1.61l-62.92 0 0 -77.43zm-1.61 -287.15l340.39 0 0 215.37 -244.4 0 0 122.61 -94.38 0 0 -194.4 244.4 0 0 -66.95 -246.02 0 0 -76.63zm87.92 410.57l94.37 0 0 69.37 300.06 0 0 -69.37 95.18 0 0 288.77 -489.62 0 0 -288.77zm94.37 143.58l0 67.76 300.06 0 0 -67.76 -300.06 0zm1008.27 -588.02l95.99 0 0 554.95 -95.99 0 0 -554.95zm68.56 230.69l129.06 0 0 79.86 -129.06 0 0 -79.86zm-553.34 -150.03l437.19 0 0 75.82 -437.19 0 0 -75.82zm218.59 106.47c35.49,0 66.81,5.92 93.97,17.75 27.16,11.83 48.39,28.37 63.72,49.61 15.33,21.24 22.99,46.11 22.99,74.61 0,27.96 -7.66,52.56 -22.99,73.81 -15.33,21.24 -36.56,37.78 -63.72,49.61 -27.16,11.83 -58.48,17.75 -93.97,17.75 -35.49,0 -66.95,-5.92 -94.37,-17.75 -27.42,-11.83 -48.8,-28.37 -64.12,-49.61 -15.33,-21.24 -22.99,-45.84 -22.99,-73.81 0,-28.5 7.66,-53.37 22.99,-74.61 15.33,-21.24 36.7,-37.78 64.12,-49.61 27.42,-11.83 58.88,-17.75 94.37,-17.75zm0 73.4c-26.35,0 -47.86,5.92 -64.53,17.75 -16.67,11.83 -25.01,28.77 -25.01,50.82 0,21.51 8.33,38.18 25.01,50.01 16.67,11.83 38.18,17.75 64.53,17.75 26.35,0 47.72,-5.92 64.13,-17.75 16.4,-11.83 24.6,-28.5 24.6,-50.01 0,-22.05 -8.2,-38.99 -24.6,-50.82 -16.4,-11.83 -37.78,-17.75 -64.13,-17.75zm-48.39 -261.34l95.99 0 0 119.38 -95.99 0 0 -119.38zm-62.92 651.74l501.72 0 0 76.63 -501.72 0 0 -76.63zm0 -137.93l95.99 0 0 171 -95.99 0 0 -171zm738.86 -83.08l481.55 0 0 67.76 -386.37 0 0 200.85 -95.18 0 0 -268.61zm0 235.53l496.87 0 0 67.76 -496.87 0 0 -67.76zm65.34 -117.77l408.95 0 0 65.34 -408.95 0 0 -65.34zm-146 -508.97l95.18 0 0 95.99 162.94 0 0 -95.99 94.38 0 0 329.9 -352.49 0 0 -329.9zm95.18 168.58l0 86.31 162.94 0 0 -86.31 -162.94 0zm366.2 -207.3l95.99 0 0 397.66 -95.99 0 0 -397.66zm57.27 155.68l139.55 0 0 78.24 -139.55 0 0 -78.24zm742.89 -156.48l91.15 0 0 742.09 -91.15 0 0 -742.09zm-106.47 289.58l129.06 0 0 77.43 -129.06 0 0 -77.43zm-59.69 -275.06l88.73 0 0 692.08 -88.73 0 0 -692.08zm-354.91 477.52l50.82 0c32.27,0 62.65,-0.54 91.15,-1.62 28.5,-1.07 56.33,-3.09 83.48,-6.05 27.16,-2.96 55.25,-7.12 84.29,-12.5l8.07 78.24c-29.58,5.91 -58.48,10.48 -86.71,13.71 -28.23,3.23 -56.87,5.24 -85.9,6.05 -29.04,0.81 -60.5,1.21 -94.38,1.21l-50.82 0 0 -79.05zm0 -404.12l274.25 0 0 77.43 -179.07 0 0 363.78 -95.18 0 0 -441.22zm720.31 -19.36l437.19 0 0 76.63 -437.19 0 0 -76.63zm218.59 104.05c35.49,0 66.81,5.64 93.97,16.94 27.16,11.29 48.39,27.16 63.72,47.59 15.33,20.43 22.99,44.36 22.99,71.79 0,26.89 -7.66,50.55 -22.99,70.98 -15.33,20.44 -36.56,36.3 -63.72,47.59 -27.16,11.29 -58.48,16.94 -93.97,16.94 -35.49,0 -66.95,-5.64 -94.37,-16.94 -27.42,-11.29 -48.8,-27.16 -64.12,-47.59 -15.33,-20.43 -22.99,-44.09 -22.99,-70.98 0,-27.43 7.66,-51.36 22.99,-71.79 15.33,-20.43 36.7,-36.3 64.12,-47.59 27.42,-11.29 58.88,-16.94 94.37,-16.94zm0 72.6c-26.89,0 -48.53,5.38 -64.93,16.13 -16.4,10.76 -24.6,26.62 -24.6,47.59 0,19.9 8.2,35.35 24.6,46.38 16.4,11.02 38.04,16.54 64.93,16.54 26.35,0 47.72,-5.51 64.13,-16.54 16.4,-11.02 24.6,-26.48 24.6,-46.38 0,-20.97 -8.2,-36.84 -24.6,-47.59 -16.4,-10.76 -37.78,-16.13 -64.13,-16.13zm266.18 -244.4l95.99 0 0 464.61 -95.99 0 0 -464.61zm70.17 194.4l127.45 0 0 79.05 -127.45 0 0 -79.05zm-465.41 303.29l491.23 0 0 244.4 -95.99 0 0 -167.78 -395.24 0 0 -76.63zm80.66 -501.71l95.99 0 0 115.35 -95.99 0 0 -115.35zm638.03 69.37l471.87 0 0 77.43 -471.87 0 0 -77.43zm-66.15 504.94l670.3 0 0 78.24 -670.3 0 0 -78.24zm146.81 -237.15l95.18 0 0 262.96 -95.18 0 0 -262.96zm362.17 -267.8l95.99 0 0 75.02c0,30.11 -0.27,62.11 -0.81,95.99 -0.54,33.88 -2.55,70.71 -6.05,110.51 -3.5,39.79 -9.81,84.16 -18.95,133.09l-95.18 -9.68c12.37,-69.37 19.63,-130.54 21.78,-183.5 2.15,-52.97 3.22,-101.77 3.22,-146.4l0 -75.02zm-178.26 267.8l94.37 0 0 262.96 -94.37 0 0 -262.96zm717.08 1.62l517.85 0 0 76.63 -517.85 0 0 -76.63zm-79.86 241.98l671.91 0 0 79.05 -671.91 0 0 -79.05zm286.35 -207.3l95.99 0 0 233.92 -95.99 0 0 -233.92zm-206.49 -317l512.2 0 0 77.43 -416.21 0 0 238.76 -95.99 0 0 -316.19zm1034.89 184.71l198.43 0 0 77.43 -198.43 0 0 -77.43zm-196.01 -179.07l78.24 0 0 114.54c0,45.17 -4.3,89.13 -12.9,131.88 -8.61,42.75 -21.51,82.55 -38.72,119.38 -17.21,36.84 -38.45,69.5 -63.72,98.01 -25.28,28.5 -54.58,51.35 -87.92,68.56l-59.69 -76.63c30.11,-14.52 56.73,-33.74 79.86,-57.67 23.12,-23.93 42.48,-51.22 58.08,-81.87 15.59,-30.65 27.29,-63.05 35.09,-97.2 7.8,-34.15 11.69,-68.97 11.69,-104.46l0 -114.54zm20.17 0l76.63 0 0 114.54c0,34.95 3.76,69.1 11.29,102.44 7.53,33.34 18.95,64.66 34.28,93.97 15.33,29.31 34.28,55.25 56.87,77.84 22.59,22.59 48.66,40.6 78.24,54.04l-57.27 76.63c-33.34,-16.13 -62.51,-37.91 -87.52,-65.34 -25.01,-27.42 -45.84,-58.88 -62.51,-94.38 -16.67,-35.49 -29.17,-74.07 -37.51,-115.75 -8.34,-41.68 -12.5,-84.83 -12.5,-129.46l0 -114.54zm326.68 -58.88l95.18 0 0 743.7 -95.18 0 0 -743.7zm253.28 55.65l320.23 0 0 76.63 -320.23 0 0 -76.63zm96.8 171l94.37 0 0 185.52 -94.37 0 0 -185.52zm185.52 -171l94.38 0 0 44.37c0,25.28 -0.67,56.2 -2.02,92.76 -1.34,36.57 -6.59,78.51 -15.73,125.83l-93.57 -10.49c8.6,-46.78 13.58,-86.84 14.92,-120.18 1.35,-33.34 2.02,-62.65 2.02,-87.92l0 -44.37zm174.23 -55.65l96.79 0 0 556.56 -96.79 0 0 -556.56zm57.27 230.69l132.28 0 0 79.05 -132.28 0 0 -79.05zm-448.48 421.05l511.4 0 0 76.63 -511.4 0 0 -76.63zm0 -145.19l95.99 0 0 168.58 -95.99 0 0 -168.58zm-100.83 -54.04l-8.87 -76.63c43.02,0 90.61,-0.54 142.77,-1.61 52.16,-1.08 105.4,-3.36 159.71,-6.86 54.31,-3.49 106.21,-8.47 155.68,-14.92l6.45 68.56c-51.08,9.14 -103.52,16 -157.29,20.57 -53.77,4.57 -106.21,7.39 -157.29,8.47 -51.08,1.07 -98.14,1.88 -141.16,2.42z"/>
  <path class="fil6" d="M8800.23 1392.14l-181.31 0 0 55.62 57.47 0 0 383.77 64.13 0 0 -383.77 59.7 0 0 -55.62zm-1303.97 418.71l-38.12 -418.42 -66.07 0 53.36 439.1 90.37 0 53.32 -439.1 -54.98 0 -38.15 418.42 0.28 0zm330.84 -362.81l0 -55.34 -155.6 0 0 439.66 155.6 0 0 -55.34 -92.05 0 0 -161.27 89.28 0 0 -55.62 -89.28 0 0 -112.1 92.05 0zm495.82 306.91c0,20.68 -11.61,29.06 -29.59,29.06 -20.17,0 -30.95,-11.18 -30.95,-29.06l0 -89.17 -64.68 0 0 81.34c0,59.53 30.69,101.18 94.24,101.18 63.58,0 96.73,-39.69 96.73,-100.07 4.71,-69.04 -13.82,-89.44 -13.82,-89.44 -5.24,-16.77 -41.17,-56.46 -41.17,-56.46 -12.16,-15.38 -51.97,-60.93 -51.97,-60.93 -14.91,-19.01 -17.4,-37.18 -17.4,-37.18 -4.43,-17.33 -1.66,-35.5 -1.66,-35.5 0,-20.69 12.44,-29.07 30.39,-29.07 18.81,0 29.58,13.42 28.75,29.07l0 75.19 64.68 0 0 -61.49c0,-59.54 -30.69,-101.18 -93.99,-101.18 -63.27,0 -94.24,40.8 -94.24,101.18 0,0 -1.1,16.21 1.39,37.45 0,0 2.48,30.19 26.53,61.5 0,0 66.88,75.46 78.75,90.56 0,0 25.71,28.79 18.27,82.73l-0.28 0.29zm-1570.67 -362.81l0 362.81c0,20.68 -12.44,29.06 -30.42,29.06 -20.17,0 -28.73,-11.18 -28.73,-29.06l0 -362.81 -64.41 0 0 355.26c-6.07,59.53 30.42,101.17 94.24,101.17 63.86,0 100.07,-40.81 93.97,-101.17l0 -355.26 -64.65 0zm330.82 0l0 380.69 -62.46 -380.69 -95.08 0 0 439.95 51.97 0 0 -406.69 67.16 406.69 90.38 0 0 -439.95 -51.97 0zm227.19 0l-64.13 0 0 439.95 64.13 0 0 -439.95zm1230.45 0l-63.86 0 0 439.95 63.86 0 0 -439.95zm511.58 0.56l-60.25 0 -40.09 207.4 -41.19 -207.4 -66.88 0 72.14 282.58 0 157.93 64.13 0 0 -157.93 72.13 -282.58zm2058.12 0l-60.25 0 -40.09 207.4 -41.18 -207.4 -66.88 0 72.14 282.58 0 157.93 64.13 0 0 -157.93 72.13 -282.58zm-3128.01 230.6l0 208.79 -63.83 0 0 -439.95 102.26 0c58.03,0 85.69,32.15 85.69,100.35 0,64.28 -15.77,102.01 -81.25,102.01l6.06 0c42.58,0 74.07,17.05 74.07,74.64l-0.55 109.56c0,0 -3.05,34.1 9.12,53.11l-66.32 0c0,0 -7.46,-13.69 -6.62,-63.73l0 -95.32c0,-28.51 -12.16,-47.24 -34.02,-48.91l-24.87 -0.55 0.27 0zm27.64 -51.44c24.89,0 30.7,-18.73 31.26,-60.37 0.52,-38.02 -4.16,-66.53 -31.26,-66.53l-27.64 0 0 126.63 27.64 0 0 0.28zm2161.35 51.44l0 208.79 -63.83 0 0 -439.95 102.26 0c58.03,0 85.69,32.15 85.69,100.35 0,64.28 -15.77,102.01 -81.25,102.01l6.06 0c42.57,0 74.07,17.05 74.07,74.64l-0.55 109.56c0,0 -3.05,34.1 9.11,53.11l-66.32 0c0,0 -7.46,-13.69 -6.62,-63.73l0 -95.32c0,-28.51 -12.16,-47.24 -34.02,-48.91l-24.87 -0.55 0.28 0zm27.64 -51.44c24.88,0 30.7,-18.73 31.25,-60.37 0.52,-38.02 -4.16,-66.53 -31.25,-66.53l-27.64 0 0 126.63 27.64 0 0 0.28zm509 51.44l0 208.79 -63.83 0 0 -439.95 102.26 0c58.03,0 85.69,32.15 85.69,100.35 0,64.28 -15.77,102.01 -81.25,102.01l6.06 0c42.58,0 74.07,17.05 74.07,74.64l-0.55 109.56c0,0 -3.05,34.1 9.12,53.11l-66.32 0c0,0 -7.46,-13.69 -6.62,-63.73l0 -95.32c0,-28.51 -12.16,-47.24 -34.02,-48.91l-24.87 -0.55 0.27 0zm27.64 -51.44c24.89,0 30.7,-18.73 31.26,-60.37 0.52,-38.02 -4.16,-66.53 -31.26,-66.53l-27.64 0 0 126.63 27.64 0 0 0.28zm-5540.54 -179.72l-181.31 0 0 55.34 57.47 0 0 384.04 64.13 0 0 -384.04 59.71 0 0 -55.34zm-290.77 439.39l66.35 0 -53.35 -439.1 -90.37 0 -53.36 439.1 55 0 10.52 -114.87 54.98 0 10.51 114.87 -0.29 0zm-60.8 -170.22l22.66 -247.93 22.38 247.93 -45.04 0zm1316.68 170.22l66.32 0 -53.35 -439.1 -90.37 0 -53.6 439.1 54.98 0 10.51 -114.87 54.98 0 10.52 114.87zm-60.53 -170.22l22.4 -247.93 22.38 247.93 -45.05 0 0.27 0zm-473.73 86.1c0,60.37 -32.32,101.17 -93.96,101.17 -61.62,0 -94.25,-41.37 -94.25,-101.17l0 -266.93c0,-60.38 32.08,-101.19 94.25,-101.19 62.19,0 93.96,41.65 93.96,101.19l0 266.93zm-64.65 -280.64c0,-18.17 -8.29,-29.06 -28.76,-29.06 -17.67,0 -30.11,8.38 -30.11,29.06l0 288.18c0,18.17 8.28,29.06 28.73,29.06 17.7,0 30.42,-8.38 30.42,-29.06l0 -288.18 -0.28 0zm-923.65 -74.62l0 380.69 -62.48 -380.69 -94.79 0 0 439.95 51.94 0 0 -406.69 67.17 406.69 90.09 0 0 -439.95 -51.94 0zm1256.96 0l0 380.69 -62.46 -380.69 -94.8 0 0 439.95 51.97 0 0 -406.69 66.88 406.69 90.38 0 0 -439.95 -51.97 0zm-564.65 0l-64.11 0 0 439.95 64.11 0 0 -439.95zm4379.46 0l-64.11 0 0 439.95 64.11 0 0 -439.95zm-3338.89 384.05l0 -384.05 -64.13 0 0 439.67 156.98 0 0 -55.62 -92.85 0zm3088.25 0l0 -384.05 -64.13 0 0 439.67 156.98 0 0 -55.62 -92.85 0zm-6344 55.62l66.33 0 -53.62 -439.11 -90.38 0 -53.34 439.11 54.99 0 10.23 -114.6 55.28 0 10.5 114.6zm-60.52 -170.23l22.66 -248.2 22.67 248.2 -45.33 0zm7457.35 170.23l66.33 0 -53.62 -439.11 -90.38 0 -53.34 439.11 54.99 0 10.23 -114.6 55.28 0 10.49 114.6zm-60.52 -170.23l22.65 -248.2 22.67 248.2 -45.32 0zm-6413.47 170.23l-53.63 -439.11 -90.37 0 -53.32 439.11 54.99 0 10.22 -114.6 55.27 0 10.25 114.6 66.6 0zm-126.85 -170.23l22.38 -248.2 22.67 248.2 -45.05 0zm-490.86 -268.88l0 380.41 -62.73 -380.41 -94.8 0 0 439.66 51.96 0 0 -406.68 66.88 406.68 90.38 0 0 -439.66 -51.68 0zm842.4 -0.56l-181.58 0 0 55.34 57.75 0 0 384.04 64.13 0 0 -384.04 59.69 0 0 -55.34zm-587.85 180.01c24.88,0 30.67,-18.45 31.22,-60.38 0.84,-38.01 -3.86,-66.52 -31.22,-66.52l-27.92 0 0 126.62 27.92 0 0 0.28zm97.56 158.2c-4.43,64.28 -17.69,102.01 -83.19,102.01l-106.13 0 0 -439.66 102.53 0c58.04,0 85.67,32.15 85.67,100.07 0,64.28 -15.47,101.74 -81.25,101.74l6.08 0c42.56,0.29 76.28,27.4 76.28,74.64 0,0 0.55,54.78 0.28,60.92l-0.28 0.29zm-66.61 -57.3c0,-28.51 -12.15,-47.24 -33.99,-48.91l-24.87 -0.56 0 158.76 27.08 0c24.88,0 30.96,-18.45 33.17,-60.37 1.1,-24.6 -1.39,-48.92 -1.39,-48.92zm6193.3 -100.9c24.87,0 30.67,-18.45 31.22,-60.38 0.84,-38.01 -3.86,-66.52 -31.22,-66.52l-27.92 0 0 126.62 27.92 0 0 0.28zm97.56 158.2c-4.43,64.28 -17.69,102.01 -83.19,102.01l-106.13 0 0 -439.66 102.53 0c58.04,0 85.68,32.15 85.68,100.07 0,64.28 -15.48,101.74 -81.25,101.74l6.08 0c42.56,0.29 76.28,27.4 76.28,74.64 0,0 0.55,54.78 0.28,60.92l-0.28 0.29zm-66.61 -57.3c0,-28.51 -12.15,-47.24 -33.99,-48.91l-24.88 -0.56 0 158.76 27.08 0c24.88,0 30.96,-18.45 33.17,-60.37 1.1,-24.6 -1.39,-48.92 -1.39,-48.92zm-7092.07 -281.75l0 167.99 -55.82 0 0 -167.99 -63.84 0 0 439.95 63.84 0 0 -216.34 55.82 0 0 216.34 63.84 0 0 -439.95 -63.84 0z"/>
  <rect class="fil7" x="2717.94" y="1245.55" width="8494.27" height="28.19"/>
 </g>
</svg>
